<?xml version="1.0" standalone="no"?>
<!DOCTYPE svg PUBLIC "-//W3C//DTD SVG 20010904//EN"
 "http://www.w3.org/TR/2001/REC-SVG-20010904/DTD/svg10.dtd">
<svg version="1.0" xmlns="http://www.w3.org/2000/svg"
 width="320.000000pt" height="320.000000pt" viewBox="0 0 320.000000 320.000000"
 preserveAspectRatio="xMidYMid meet">
<metadata>
Created by potrace 1.11, written by Peter Selinger 2001-2013
</metadata>
<g transform="translate(0.000000,320.000000) scale(0.100000,-0.100000)"
fill="#000000" stroke="none">
<path d="M1315 3039 c-403 -69 -756 -276 -954 -559 l-52 -75 28 -6 c28 -5 28
-5 -7 -11 -116 -21 -202 -40 -236 -52 l-39 -13 -3 -90 -3 -91 45 -26 c50 -29
82 -66 66 -76 -6 -4 -20 -53 -31 -111 -29 -139 -31 -447 -5 -586 81 -443 326
-780 706 -976 251 -129 465 -180 760 -181 309 0 561 64 808 205 241 139 439
351 551 590 138 294 174 658 99 998 l-12 54 -13 -34 c-12 -32 -13 -32 -7 -4
10 54 28 80 82 115 l52 34 0 88 c0 103 5 98 -130 125 -105 20 -188 41 -167 42
9 1 17 4 17 7 0 4 -21 35 -46 71 -121 170 -291 311 -500 416 -154 77 -304 123
-499 153 -129 20 -375 16 -510 -7z m478 -74 c388 -51 715 -224 928 -492 28
-34 60 -64 72 -67 12 -2 -34 -2 -103 2 -69 4 -215 7 -325 6 -165 -1 -218 -5
-305 -23 -113 -24 -225 -67 -290 -110 -39 -26 -44 -27 -173 -25 -124 2 -135 3
-170 27 -61 41 -175 84 -287 108 -87 18 -140 22 -305 23 -110 1 -256 -2 -325
-7 -69 -4 -117 -4 -108 0 9 5 31 28 49 53 88 124 290 287 452 364 269 129 592
180 890 141z m-743 -685 c156 -25 250 -77 270 -148 33 -119 -16 -398 -90 -515
-55 -88 -183 -135 -330 -122 -47 4 -112 7 -145 6 -45 -1 -56 1 -45 9 11 8 1
10 -40 6 -41 -4 -50 -3 -35 4 16 8 11 9 -20 5 -29 -3 -36 -2 -25 6 12 8 10 9
-10 8 -103 -8 -183 87 -215 254 -33 178 -27 362 13 417 25 33 115 68 205 80
86 11 376 5 467 -10z m1645 -5 c138 -37 160 -72 159 -255 -1 -316 -87 -491
-234 -481 -20 2 -22 0 -10 -8 11 -8 4 -9 -25 -6 -31 4 -36 3 -20 -5 15 -7 6
-8 -35 -4 -41 4 -51 2 -40 -6 11 -8 0 -10 -45 -9 -33 1 -98 -2 -145 -6 -147
-13 -275 34 -330 122 -77 121 -127 429 -86 526 34 83 154 129 386 151 97 9
365 -3 425 -19z m-2475 -24 c22 -42 -24 -74 -79 -55 -29 10 -41 51 -19 65 26
17 87 10 98 -10z m2858 10 c22 -14 10 -55 -19 -65 -55 -19 -101 13 -79 55 11
20 72 27 98 10z m-1415 -234 c30 -13 33 -19 46 -88 30 -167 103 -360 166 -444
l27 -35 -302 0 -302 0 27 35 c62 82 127 254 163 430 16 75 23 92 43 102 32 17
92 16 132 0z m-1474 -47 c0 -9 -4 -8 -9 5 -5 11 -9 27 -9 35 0 9 4 8 9 -5 5
-11 9 -27 9 -35z m8 -42 c-3 -8 -6 -5 -6 6 -1 11 2 17 5 13 3 -3 4 -12 1 -19z
m2810 0 c-3 -8 -6 -5 -6 6 -1 11 2 17 5 13 3 -3 4 -12 1 -19z m-2763 -178 c36
-173 59 -226 123 -287 30 -29 52 -57 49 -62 -10 -15 40 -159 84 -245 116 -227
315 -416 554 -526 402 -186 899 -153 1268 85 154 100 330 309 401 479 36 86
68 196 61 208 -3 4 19 32 49 61 62 59 86 113 119 267 11 52 24 101 28 109 12
23 23 -192 17 -319 -19 -351 -136 -621 -371 -856 -192 -192 -417 -311 -708
-375 -121 -26 -388 -36 -525 -20 -548 67 -974 394 -1134 872 -63 188 -84 424
-62 685 8 94 13 85 47 -76z m2753 118 c-3 -7 -5 -2 -5 12 0 14 2 19 5 13 2 -7
2 -19 0 -25z m-2393 -503 c108 -18 420 -19 521 -2 39 7 92 9 120 6 65 -9 645
-9 710 0 28 3 81 1 120 -6 148 -25 450 -15 635 22 23 5 22 4 -5 -11 -16 -9
-37 -22 -45 -29 -8 -7 -67 -33 -130 -58 -603 -237 -1257 -237 -1860 0 -63 25
-122 51 -130 58 -8 7 -28 20 -45 29 -27 15 -28 16 -5 11 14 -3 65 -12 114 -20z"/>
<path d="M922 2117 c-56 -11 -117 -70 -132 -129 -7 -23 -10 -73 -8 -110 3 -55
9 -75 33 -110 41 -57 87 -82 152 -82 103 0 174 81 181 207 9 151 -93 252 -226
224z"/>
<path d="M2196 2118 c-56 -12 -91 -42 -122 -103 -22 -47 -26 -65 -22 -122 7
-126 78 -207 181 -207 66 0 111 25 152 83 28 40 30 49 30 134 0 79 -3 97 -23
129 -43 69 -119 103 -196 86z"/>
</g>
</svg>
